<svg version="1.1" xmlns="http://www.w3.org/2000/svg" viewBox="265 530 557 364" xml:space="preserve">
<g transform="translate(0,887.34) scale(1,1.0405) translate(0,-887.34)">
<path fill="#FFFFFF" stroke="none" d="
M490.560181,687.481384
	C482.946075,671.380188 475.518646,655.605652 467.617920,638.825806
	C447.049011,680.300415 426.890625,720.947327 406.355286,762.354248
	C408.721985,762.354248 410.310364,762.354126 411.898743,762.354370
	C440.397736,762.358337 468.898346,762.519470 497.394196,762.222900
	C502.591919,762.168823 505.315857,763.552612 507.563995,768.331848
	C515.277039,784.728882 523.498413,800.886719 531.510132,817.143616
	C532.012085,818.162170 532.377747,819.247986 533.022400,820.832458
	C481.207397,820.832458 429.833252,820.832458 378.449493,820.832458
	C367.829468,842.167175 357.423523,863.174988 346.843811,884.094849
	C346.133850,885.498657 344.116608,887.139099 342.694733,887.150818
	C319.704071,887.341248 296.711334,887.285522 272.955261,887.285522
	C274.596283,883.739014 275.906006,880.651733 277.422302,877.669495
	C305.984070,821.494568 334.556030,765.324951 363.155579,709.169312
	C389.186920,658.056580 415.294769,606.982605 441.220428,555.816345
	C443.119720,552.067993 445.159393,550.552002 449.502563,550.652222
	C462.494019,550.951904 475.500214,550.583679 488.495239,550.800720
	C490.031342,550.826294 492.210663,552.529602 492.952057,554.021606
	C508.047516,584.399353 523.030579,614.833435 537.928040,645.309021
	C572.383240,715.793762 606.782532,786.305847 641.199951,856.808960
	C646.007385,866.656799 650.789734,876.516907 655.866455,886.952637
	C653.947815,887.104370 652.544556,887.313721 651.141724,887.311462
	C630.976379,887.279785 610.810791,887.155640 590.645996,887.236816
	C587.719482,887.248596 586.285583,886.313110 585.022583,883.680420
	C554.398804,819.846985 523.680359,756.058960 492.975067,692.264648
	C492.254822,690.768250 491.490540,689.293091 490.560181,687.481384
z"/>
</g>
<path fill="#FFFFFF" stroke="none" d="
M763.999268,822.829590
	C769.498047,822.827881 774.506836,822.652100 779.490051,822.932312
	C780.979309,823.016113 783.100769,824.000793 783.742310,825.206116
	C794.441528,845.308655 804.952576,865.511353 815.492065,885.698792
	C815.635559,885.973633 815.605774,886.338928 815.719971,887.061096
	C814.070068,887.137756 812.467773,887.277710 810.865417,887.277161
	C768.374207,887.262573 725.882874,887.265808 683.392334,887.082703
	C681.780396,887.075806 679.390442,885.632507 678.682983,884.204651
	C658.470825,843.406799 638.415283,802.531372 618.361145,761.655334
	C595.457642,714.971558 572.597534,668.266479 549.683899,621.587646
	C536.428955,594.585205 523.105042,567.616699 509.816833,540.630554
	C509.462646,539.911194 509.162659,539.165161 508.651123,538.011536
	C515.259705,537.652405 521.489990,537.092773 527.726135,537.018799
	C543.054749,536.837097 558.386902,536.948914 573.715454,536.764404
	C576.395264,536.732117 577.750305,537.435913 579.010681,539.941833
	C614.195312,609.895691 649.514771,679.781738 684.748596,749.710999
	C696.564026,773.161438 708.155518,796.724976 720.056458,820.131531
	C720.757080,821.509583 723.301208,822.672546 725.008362,822.701416
	C737.835754,822.918762 750.668457,822.825928 763.999268,822.829590
z"/>
</svg>
