<svg version="1.1" id="Layer_1" xmlns:x="ns_extend;" xmlns:i="ns_ai;" xmlns:graph="ns_graphs;" xmlns="http://www.w3.org/2000/svg" xmlns:xlink="http://www.w3.org/1999/xlink" x="0px" y="0px" viewBox="0 0 299.1 42" style="enable-background:new 0 0 299.1 42;" xml:space="preserve">
 <metadata>
  <sfw xmlns="ns_sfw;">
   <slices>
   </slices>
   <sliceSourceBounds bottomLeftOrigin="true" height="42" width="299.1" x="-104.2" y="-162.2">
   </sliceSourceBounds>
  </sfw>
 </metadata>
 <g>
  <g>
   <path d="M156.7,0.1h-23.5c-8.4,0-15.2,6.8-15.2,15.2v11.5c0,8.4,6.8,15.2,15.2,15.2h23.5c8.4,0,15.2-6.8,15.2-15.2V15.3
			C171.8,6.9,165,0.1,156.7,0.1z M161.6,27.7c0,2.6-2.1,4.8-4.8,4.8H133c-2.6,0-4.8-2.1-4.8-4.8V14.3c0-2.6,2.1-4.8,4.8-4.8h23.8
			c2.6,0,4.8,2.1,4.8,4.8V27.7z">
   </path>
   <g>
    <path d="M219.2,0.1h-36.5v41.9h36.5c8.4,0,15.2-6.8,15.2-15.2V15.3C234.4,6.9,227.6,0.1,219.2,0.1z M224.2,27.7
				c0,2.6-2.1,4.8-4.8,4.8h-26.7V9.5h26.7c2.6,0,4.8,2.1,4.8,4.8V27.7z">
    </path>
   </g>
   <polygon points="49.7,0 15.1,0 20.5,8.7 44.2,8.7 		">
   </polygon>
   <path d="M40.6,16H13c-1.1,0-1.9-0.9-1.9-1.9V0h-0.9c-5,0-9,4-9,9v7v0c0,5,4,9,9,9h0.9h29.5v6c0,1.1-0.9,1.9-1.9,1.9h-33l-5.6,9
			h40.6H42c4.6,0,8.4-3.7,8.4-8.4v-0.6V25v-0.6c0-4.6-3.7-8.4-8.4-8.4H40.6z">
   </path>
   <polygon points="115.4,0.1 101.5,0.1 85.3,16 71.3,16 71.3,0.1 61.2,0.1 61.2,42 71.3,42 71.3,25.8 84.7,25.8 101.5,42 115.4,42 
			93.5,21.4 		">
   </polygon>
   <path d="M299.1,41.9L275.7,0.2h-11.5l0,0l-2.5,0l-23.5,41.7l11.3,0l8.8-15.6l5.1,8.1h20l4.2,7.5H299.1z M258.7,25.6L268.6,8
			l9.9,17.6H258.7z">
   </path>
  </g>
 </g>
</svg>