<?xml version="1.0" encoding="UTF-8" standalone="no"?>
<!-- Created with Inkscape (http://www.inkscape.org/) -->

<svg
   xmlns:dc="http://purl.org/dc/elements/1.1/"
   xmlns:cc="http://creativecommons.org/ns#"
   xmlns:rdf="http://www.w3.org/1999/02/22-rdf-syntax-ns#"
   xmlns:svg="http://www.w3.org/2000/svg"
   xmlns="http://www.w3.org/2000/svg"
   version="1.1"
   width="124.77"
   height="47.77"
   id="svg2"
   xml:space="preserve"><metadata
     id="metadata8"><rdf:RDF><cc:Work
         rdf:about=""><dc:format>image/svg+xml</dc:format><dc:type
           rdf:resource="http://purl.org/dc/dcmitype/StillImage" /><dc:title></dc:title></cc:Work></rdf:RDF></metadata><defs
     id="defs6" /><g
     transform="matrix(1.25,0,0,-1.25,1.25,46.51992)"
     id="g10"><path
       d="m 46.819566,36.43972 c 12.237,0 22.21732,-4.622 22.21732,-10.288 0,-5.667 -9.98032,-10.288 -22.21732,-10.288 -12.237,0 -22.218687,4.621 -22.218687,10.288 0,5.666 9.981687,10.288 22.218687,10.288 z m 15.51195,-5.626 c 1.08155,-1.293 0.47748,-2.676 -2.88003,-3.844 -7.3755,-2.565 -20.33078,-0.764 -21.53756,-8.553 2.63647,-0.72 5.67473,-1.132 8.90564,-1.132 10.05463,0 18.25437,3.982 18.25437,8.865 0,1.709 -1.00588,3.308 -2.74242,4.664 z m -29.14149,-10.55 c 1.80398,5.023 5.40228,11.122 9.74089,14.547 -8.19698,-0.869 -14.36708,-4.426 -14.36708,-8.661 0,-2.256 1.75168,-4.319 4.62619,-5.886 z m 6.08754,4.628 c 1.18614,2.823 3.41393,6.175 6.44669,8.686 9.15057,0.659 17.03658,-3.138 9.43266,-5.091 -4.74317,-1.219 -11.69072,-0.97 -15.87935,-3.595"
       id="path52"
       style="fill:#000080;fill-opacity:1;fill-rule:evenodd;stroke:none" /><path
       d="m 88.871696,5.4555202 1.83837,0 c 0.19815,0 0.58344,0.043 1.15724,0.136 0.29585,0.043 0.5339,0.151 0.71141,0.324 0.18851,0.172 0.27658,0.374 0.27658,0.596 0,0.33 -0.14861,0.589 -0.43482,0.762 -0.28622,0.179 -0.82975,0.273 -1.6306,0.273 l -1.91818,0 0,-2.091 z m -4.39915,-6.12099999 0,10.28799999 7.29569,0 c 1.34438,0 2.3819,-0.086 3.09468,-0.259 0.71141,-0.165 1.29484,-0.474 1.72967,-0.934 0.43482,-0.452 0.65223,-1.013 0.65223,-1.667 0,-0.567 -0.16787,-1.063 -0.49399,-1.472 -0.33575,-0.417 -0.80085,-0.755 -1.38428,-1.013 -0.37566,-0.159 -0.89029,-0.295 -1.5329,-0.403 0.51464,-0.129 0.89993,-0.251 1.13798,-0.38 0.15686,-0.087 0.39492,-0.266 0.70177,-0.539 0.30685,-0.28 0.50363,-0.489 0.61233,-0.64 l 2.11633,-2.98099999 -4.94406,0 -2.342,3.14699999 c -0.29722,0.402 -0.55454,0.668 -0.79121,0.79 -0.31649,0.158 -0.67288,0.237 -1.0678,0.237 l -0.38529,0 0,-4.17399999 -4.39915,0 z m -14.33543,10.28799999 11.71549,0 0,-2.199 -7.3356,0 0,-1.638 6.8017,0 0,-2.097 -6.8017,0 0,-2.027 7.553,0 0,-2.32699999 -11.9329,0 0,10.28799999 z m -7.51311,0 4.3799,0 0,-10.28799999 -4.3799,0 0,10.28799999 z m -18.8722,0 5.75316,0 2.2154,-6.258 2.21403,6.258 5.7339,0 0,-10.28799999 -3.56941,0 0,7.84499999 -2.77682,-7.84499999 -3.23366,0 -2.75756,7.84499999 0,-7.84499999 -3.57904,0 0,10.28799999 z m -14.23499,0 11.71411,0 0,-2.199 -7.3356,0 0,-1.638 6.8017,0 0,-2.097 -6.8017,0 0,-2.027 7.55301,0 0,-2.32699999 -11.93152,0 0,10.28799999 z m -10.914637,-4.167 1.83837,0 c 0.19815,0 0.58343,0.043 1.15724,0.136 0.29584,0.043 0.5339,0.151 0.7114,0.324 0.18852,0.172 0.27658,0.374 0.27658,0.596 0,0.33 -0.14861,0.589 -0.43482,0.762 -0.28621,0.179 -0.83112,0.273 -1.63197,0.273 l -1.9168,0 0,-2.091 z m -4.39916,-6.12099999 0,10.28799999 7.29569,0 c 1.34438,0 2.3819,-0.086 3.09469,-0.259 0.7114,-0.165 1.29484,-0.474 1.72966,-0.934 0.43483,-0.452 0.65224,-1.013 0.65224,-1.667 0,-0.567 -0.16788,-1.063 -0.494,-1.472 -0.33575,-0.417 -0.80084,-0.755 -1.38428,-1.013 -0.37565,-0.159 -0.89029,-0.295 -1.53289,-0.403 0.51463,-0.129 0.89992,-0.251 1.1366,-0.38 0.15962,-0.087 0.39629,-0.266 0.70315,-0.539 0.30547,-0.28 0.50362,-0.489 0.61233,-0.64 l 2.116327,-2.98099999 -4.942687,0 -2.34337,3.14699999 c -0.29722,0.402 -0.55454,0.668 -0.79122,0.79 -0.31648,0.158 -0.67287,0.237 -1.06779,0.237 l -0.38529,0 0,-4.17399999 -4.39916,0 z m -9.9555496,5.89799999 1.0678,0 c 0.85038,0 1.43382,0.108 1.7792,0.323 0.33713,0.209 0.51326,0.482 0.51326,0.812 0,0.324 -0.14723,0.604 -0.44446,0.827 -0.29584,0.222 -0.85038,0.337 -1.67049,0.337 l -1.24531,0 0,-2.299 z m -4.38951991,4.39 7.26678991,0 c 1.58106,0 2.7671896,-0.273 3.5584096,-0.826 0.78158,-0.546 1.1765,-1.322 1.1765,-2.335 0,-1.035 -0.42519,-1.847 -1.28521,-2.436 -0.86001,-0.582 -2.1754996,-0.876 -3.9340596,-0.876 l -2.39291,0 0,-3.81499999 -4.38951991,0 0,10.28799999 z"
       id="path3282"
       style="fill:#000080;fill-opacity:1;fill-rule:nonzero;stroke:none" /></g></svg>