<svg class="Brand-image" viewBox="0 0 447 200" xmlns="http://www.w3.org/2000/svg"><path fill="#ffffff" d="M278.47,52.42c0,2.36-0.29,4.66-0.79,6.91c-0.54,2.41-1.35,4.73-2.44,6.98c-7.6,15.93-27.9,27.32-51.76,27.32 					c-30.36,0-54.97-18.46-54.97-41.22c0-22.76,24.61-41.21,54.97-41.21c25.63,0,47.15,13.14,53.25,30.92 					c1.05,3.02,1.61,6.17,1.71,9.43C278.45,51.84,278.47,52.13,278.47,52.42z"></path><path fill="#ffffff" d="M74.89,176.16c4.87,1.78,7.68,5.62,7.68,10.83c0,8.16-6.17,12.96-15.08,12.96H41.77v-44.43h23.24 					c8.5,0,14.54,4.46,14.54,11.93C79.55,171.64,77.7,174.45,74.89,176.16z M50,163v10.76h13.99c4.94,0,6.99-1.99,6.99-5.42 					c0-3.36-2.06-5.35-6.99-5.35H50z M50,180.62v11.86h16.52c4.94,0,7.41-2.47,7.41-5.97c0-3.43-2.47-5.9-7.41-5.9H50z"></path><path fill="#ffffff" d="M96.69,199.95v-44.43h37.64v7.54h-29.41v10.63h20.02v7.27h-20.02v11.45h29.89v7.54H96.69z"></path><path fill="#ffffff" d="M148.25,199.95v-44.43h7.13l26.88,31.81v-31.81h7.61v44.43h-7.06l-26.88-31.75v31.75H148.25z"></path><path fill="#ffffff" d="M219.56,199.95v-36.89h-16.59v-7.54h41.14v7.54h-16.25v36.89H219.56z"></path><path fill="#ffffff" d="M256.31,199.95v-44.43h8.23v36.89h28.04v7.54H256.31z"></path><path fill="#ffffff" d="M305.05,199.95v-44.43h37.64v7.54h-29.41v10.63h20.02v7.27h-20.02v11.45h29.89v7.54H305.05z"></path><path fill="#ffffff" d="M376.02,199.95v-18.92l-20.78-25.51h9.67l15.56,18.79l15.29-18.79h9.46l-20.71,25.51v18.92H376.02z"></path><path fill="#ffffff" d="M446.72,8.54c-1.86-6.61-10.96-6.88-18.39-7.36c-18.81-1.19-104.3-1.19-123.44-1.09c-5.04,0.03-25.19,0.18-28.96,0.29 				c-7.42,0.24-10.23,0.49-13.88,0.97c-3.33,0.43-5.58,1.17-6.89,2.98c-1.13,1.55-0.39,4.14,0.24,5.6 				c-9.57-4.37-20.52-6.71-31.91-6.71c-11.37,0-22.31,2.33-31.87,6.69c0.62-1.46,1.35-4.03,0.23-5.58c-1.31-1.8-3.56-2.54-6.89-2.98 				c-3.66-0.47-6.47-0.73-13.89-0.97c-3.76-0.11-23.91-0.26-28.96-0.29c-19.14-0.1-104.61-0.1-123.43,1.09 				C11.24,1.65,2.13,1.93,0.28,8.54c-2.22,7.91,9.28,15.54,15.88,20.23c8.5,6.05,28.54,19.46,58.29,34.28 				c26.89,13.4,51.14,24.01,67.49,27.38c3.8,0.78,7.14,0.11,10.18-0.78c1.12-0.33,2.22-0.76,3.28-1.25 				c3.79,4.95,8.4,9.51,13.79,13.57c14.78,11.16,34.06,17.32,54.26,17.32c20.21,0,39.48-6.15,54.26-17.32 				c5.4-4.07,10.04-8.65,13.82-13.62c1.09,0.52,2.21,0.97,3.36,1.3c3.04,0.89,6.39,1.56,10.18,0.78 				c16.36-3.37,40.61-13.98,67.49-27.38c29.76-14.82,49.79-28.22,58.29-34.28C437.44,24.08,448.94,16.44,446.72,8.54z M359.92,9.52 				l-39.16,9.24l-40.4,1.1l37.08-9.44L359.92,9.52z M280.07,30.56l35.04,1.68l-31.82,4.48c-0.85-1.99-1.86-3.92-3.03-5.81 				c-0.12-0.12-0.24-0.24-0.35-0.35H280.07z M278.94,28.62c-1.34-2.23-2.43-3.88-3.42-5.44c-0.32-0.5-0.62-1-0.91-1.51l38.26-1.05 				L278.94,28.62z M286.2,47.48l22.99,5.95l-22.73,0.76c0.03-0.58,0.04-1.17,0.04-1.77C286.5,50.75,286.4,49.1,286.2,47.48z 				 M301.09,62.68l-15.88-0.22c0.51-1.93,0.87-3.89,1.07-5.89L301.09,62.68z M285.86,45.29c-0.41-2.29-1.03-4.53-1.84-6.72 				l29.64,4.37L285.86,45.29z M284.41,65.15l10.61,6.47l-13.08-0.65C282.93,69.07,283.75,67.13,284.41,65.15z M297.96,73.4 				l11.37,6.92l-15.77-1.04l-10.89-6.64L297.96,73.4z M285.87,64.12l19.35,0.27l21.34,8.79l-28.1-1.39L285.87,64.12z M288.59,55.76 				l26.24-0.88l32.63,8.44l-41.9-0.58L288.59,55.76z M289.49,46.63l31.3-2.64l50.09,7.37L315,53.22L289.49,46.63z M288.75,37.62 				l35.15-4.95l71.17,3.4l-74.24,6.26L288.75,37.62z M323.84,31.01l-39.79-1.9l36.92-8.71l97.12-2.66L323.84,31.01z M273.77,13.21 				c0.46-0.5,1.11-0.94,1.89-1.32c1.74-0.81,4.91-1.12,7.49-1.37c0,0,9.4-0.44,11.55-0.48c6.53-0.12,13.51-0.24,18.94-0.33 				l-39.91,10.15c-0.21-0.47-0.38-0.99-0.54-1.55C272.82,16.98,272.52,14.55,273.77,13.21z M223.49,9.56 				c25.81,0,48.34,13.17,54.81,32.03c1.08,3.15,1.69,6.48,1.79,9.91l0.01,0.27c0.01,0.22,0.02,0.43,0.02,0.65 				c0,2.37-0.29,4.81-0.83,7.28c-0.57,2.52-1.44,4.99-2.56,7.33c-8.06,16.9-29.45,28.26-53.24,28.26 				c-31.22,0-56.62-19.23-56.62-42.86C166.87,28.79,192.27,9.56,223.49,9.56z M163.68,36.72l-31.81-4.48l35.06-1.68h0.15l-0.35,0.35 				c0.05-0.1,0.11-0.19,0.16-0.28C165.63,32.6,164.57,34.64,163.68,36.72z M129.54,10.43l37.08,9.44l-40.4-1.1L87.06,9.52 				L129.54,10.43z M172.38,21.67c-0.29,0.51-0.59,1.01-0.91,1.51c-1,1.57-2.08,3.21-3.41,5.45l-33.95-8.01L172.38,21.67z 				 M162.92,29.11l-39.77,1.9L28.91,17.74l97.11,2.66L162.92,29.11z M158.23,37.62l-32.09,4.71L51.9,36.07l71.17-3.4L158.23,37.62z 				 M160.51,54.18l-22.72-0.76l22.99-5.95c-0.2,1.63-0.31,3.27-0.31,4.94C160.47,53.01,160.48,53.6,160.51,54.18z M160.68,56.59 				c0.22,1.99,0.56,3.95,1.07,5.88l-15.87,0.22L160.68,56.59z M161.11,45.29l-27.79-2.35l29.63-4.36 				C162.13,40.77,161.52,43.01,161.11,45.29z M126.2,43.99l31.29,2.64l-25.51,6.6l-55.87-1.87L126.2,43.99z M132.17,54.88 				l26.23,0.88l-16.97,6.98l-41.9,0.58L132.17,54.88z M141.76,64.39l19.35-0.27l-11.56,7.03l-28.89,1.92L141.76,64.39z 				 M150.05,72.77l13-0.86l-10.44,6.74l-14.71,1.52L150.05,72.77z M153.09,70.92l9.48-5.78c0.56,1.71,1.24,3.38,2.06,5.01 				L153.09,70.92z M152.29,10.04c2.15,0.04,11.55,0.48,11.55,0.48c2.57,0.25,5.75,0.56,7.48,1.37c0.79,0.38,1.44,0.82,1.9,1.32 				c1.24,1.34,0.95,3.77,0.57,5.1c-0.17,0.56-0.35,1.07-0.54,1.55L133.35,9.71C138.79,9.8,145.76,9.92,152.29,10.04z M14.26,12.12 				c1.21-2.63,7.77-2.85,15.37-3.02c9.5-0.21,32.19-0.15,48.98-0.1c0.11,0.17,0.29,0.29,0.49,0.34l39.02,9.2L14.39,15.7 				C13.72,14.29,13.79,13.15,14.26,12.12z M39.94,34.99c-3.3-2.05-6.89-4.31-10.79-6.8c-7.43-4.76-11.56-8.12-13.59-10.67 				l98.78,13.91L39.94,34.99L39.94,34.99z M43.15,36.97l75.87,6.41l-51.67,7.59C61.69,47.94,54.09,43.68,43.15,36.97z M92.14,63.65 				c-5.36-2.49-10.01-4.79-13.27-6.6c-2.21-1.22-4.73-2.5-8.02-4.23l55.5,1.86L92.5,63.44C92.36,63.48,92.24,63.55,92.14,63.65z 				 M115.09,73.69c-6.76-2.8-13.72-5.82-19.95-8.66l42.15-0.58l-21.91,9.02C115.26,73.52,115.16,73.59,115.09,73.69z M133.65,80.96 				L133.65,80.96c-4.62-1.67-10.02-3.77-15.64-6.06l28.5-1.89l-12.58,7.66C133.81,80.74,133.71,80.84,133.65,80.96z M160.13,80.17 				c-2.97,1.3-6.13,2.26-9.28,3.01c-2.31,0.55-3.73,0.6-4.99,0.6c-1.66,0-6.61-0.86-9.11-1.72c-0.09-0.03-0.18-0.06-0.27-0.09 				l16.49-1.71c0.13-0.02,0.26-0.06,0.36-0.13l12.34-7.98c0.8,1.44,1.69,2.85,2.66,4.22c-1.17,0.53-3.26,1.48-3.88,1.77 				C163.06,78.83,161.61,79.52,160.13,80.17z M272.78,95.45c-13.37,10.1-30.89,15.67-49.34,15.67c-18.44,0-35.96-5.57-49.34-15.67 				c-4.27-3.22-7.99-6.79-11.12-10.63l0.48-0.23c2.29-1.25,5.08-2.7,8.03-4.26c2.39,2.72,5.16,5.28,8.28,7.61 				c11.77,8.82,27.29,13.68,43.72,13.68c16.43,0,31.96-4.86,43.72-13.68c3.13-2.35,5.9-4.9,8.29-7.62c2.95,1.57,5.75,3.02,8.04,4.27 				l0.39,0.19C280.8,88.63,277.07,92.21,272.78,95.45z M310.25,82.07c-2.5,0.86-7.46,1.72-9.11,1.72c-1.27,0-2.68-0.05-4.99-0.6 				c-3.16-0.75-6.32-1.71-9.28-3.01c-1.48-0.65-2.93-1.34-4.33-2.01c-0.61-0.3-2.73-1.25-3.9-1.78c0.71-1,1.38-2.02,2-3.06 				l12.25,7.47c0.11,0.07,0.24,0.11,0.37,0.12l17.07,1.12C310.3,82.05,310.28,82.06,310.25,82.07z M313.34,80.97 				c-0.06-0.12-0.16-0.23-0.29-0.31l-11.65-7.1l27.49,1.36C323.29,77.22,317.92,79.31,313.34,80.97z M331.9,73.7 				c-0.07-0.1-0.18-0.18-0.31-0.23l-21.91-9.02l42.16,0.58C345.62,67.87,338.67,70.89,331.9,73.7z M368.12,57.05 				c-3.26,1.8-7.92,4.1-13.28,6.6c-0.1-0.1-0.22-0.17-0.35-0.21l-33.85-8.76l55.53-1.86C372.87,54.55,370.33,55.83,368.12,57.05z 				 M379.64,50.98l-51.68-7.59l75.89-6.41C392.91,43.69,385.3,47.95,379.64,50.98z M417.85,28.19c-3.9,2.49-7.48,4.75-10.79,6.8 				l-74.43-3.56l98.79-13.91C429.4,20.07,425.27,23.43,417.85,28.19z M432.6,15.7l-103.74,2.84l39.02-9.2 				c0.21-0.05,0.38-0.17,0.49-0.34c16.79-0.05,39.49-0.11,49,0.1c7.59,0.17,14.16,0.38,15.36,3.02 				C433.21,13.15,433.27,14.29,432.6,15.7z"></path><path fill="#ffffff" d="M166.93,30.56c-0.01,0.02-0.02,0.04-0.04,0.07c-0.05,0.09-0.11,0.18-0.16,0.28l0.35-0.35H166.93z M280.22,30.84 				c-0.06-0.09-0.12-0.19-0.18-0.28h-0.14c0.12,0.11,0.24,0.23,0.35,0.35C280.25,30.89,280.23,30.86,280.22,30.84z"></path><path fill="#ffffff" d="M280.26,30.91c-0.12-0.12-0.24-0.24-0.35-0.35h0.16c0.05,0.09,0.11,0.18,0.16,0.28 				C280.23,30.86,280.25,30.89,280.26,30.91z"></path><path fill="#ffffff" d="M167.08,30.56l-0.35,0.35c0.05-0.1,0.11-0.19,0.16-0.28c0.02-0.03,0.03-0.05,0.04-0.07H167.08z"></path><path d="M246.92,51.16c-0.23-0.16-0.67-0.4-0.72-0.88c-0.03-0.24,0.24-0.54,0.96-1c3.38-2.15,8.49-5.18,8.16-13.11 					c-0.37-8.71-10.54-18.28-34.04-17.61c-11.8,0.34-23.46,4.01-30.05,9.73c-1.02,0.88-3.59,3.05-3.5,3.98 					c0.07,0.66,0.57,1.21,1.3,1.87c1.1,1.01,2.96,2.99,2.96,2.99l-0.1,31.82c-0.72,0.75-1.64,1.65-2.8,2.87 					c-0.63,0.66-1.36,1.11-1.39,1.95c-0.03,0.7,2.83,2.78,3.98,3.66c4.45,3.41,15.62,8.57,31.03,8.88 					c19.22,0.39,34.29-6.5,34.44-19.82C257.26,58.5,250.25,53.37,246.92,51.16z M222.29,22.94c5.07-0.05,15.26,0.5,14.99,13.12 					c-0.23,10.47-6.14,13.57-14.16,13.4c-8.41-0.18-14.14-2.83-14.55-13.16C208.11,24.92,216.67,22.99,222.29,22.94z M223.81,81.96 					c-9.05-0.2-15.17-3.1-15.65-14.32c-0.5-11.86,8.72-14.47,14.77-14.51c5.44-0.05,16.42,0.55,16.11,14.28 					C238.8,78.78,232.43,82.15,223.81,81.96z" fill="#000000"></path></svg>
