<svg version="1.1" id="Layer_1" xmlns:x="ns_extend;" xmlns:i="ns_ai;" xmlns:graph="ns_graphs;" xmlns="http://www.w3.org/2000/svg" xmlns:xlink="http://www.w3.org/1999/xlink" x="0px" y="0px" viewBox="0 0 70 75.1" style="enable-background:new 0 0 70 75.1;" xml:space="preserve">
 <style type="text/css">
  .st0{fill:#231815;}
	.st1{fill:#E40012;}
 </style>
 <metadata>
  <sfw xmlns="ns_sfw;">
   <slices>
   </slices>
   <sliceSourceBounds bottomLeftOrigin="true" height="75.1" width="70" x="12" y="16.5">
   </sliceSourceBounds>
  </sfw>
 </metadata>
 <g>
  <polygon class="st0" points="9.7,53.2 9.7,62.4 7.6,62.4 7.6,55.9 4.8,60.6 2,55.9 2,62.4 0,62.4 0,53.2 2.7,53.2 4.8,56.9 7,53.2 
			">
  </polygon>
  <rect x="11.5" y="53.2" class="st0" width="2.1" height="9.3">
  </rect>
  <polygon class="st0" points="17,55.1 14.5,55.1 14.5,53.2 21.6,53.2 21.6,55.1 19.1,55.1 19.1,62.4 17,62.4 	">
  </polygon>
  <path class="st0" d="M22.3,62.3v-1.9c0.4,0.1,1.5,0.3,2.8,0.3c1.1,0,1.6-0.1,1.6-0.7c0-0.7-0.5-0.8-2-1.5s-2.5-1.3-2.5-2.8
		c0-1.9,1.2-2.6,3.5-2.6c1.2,0,2.1,0.1,2.6,0.2v1.9c-0.5-0.1-1.5-0.2-2.5-0.2c-1.3,0-1.5,0.1-1.5,0.6s0.7,0.8,1.7,1.2
		c1.5,0.7,2.8,1.3,2.8,3c0,1.8-1.1,2.7-3.6,2.7C24.1,62.6,23.2,62.4,22.3,62.3">
  </path>
  <path class="st0" d="M30,59.3v-6.1h2.1v6.1c0,1.1,0.6,1.4,1.6,1.4s1.6-0.4,1.6-1.4v-6.1h2.1v6.1c0,2.2-1.5,3.3-3.7,3.3
		C31.4,62.6,30,61.5,30,59.3">
  </path>
  <path class="st0" d="M39.2,53.2h4c1.9,0,2.9,0.7,2.9,2.4c0,1.3-0.8,1.8-1.5,2c0.8,0.2,1.7,0.7,1.7,2.3s-1,2.6-3,2.6h-4.2L39.2,53.2
		L39.2,53.2z M42.9,56.9c0.8,0,1.1-0.4,1.1-1.1c0-0.7-0.4-0.9-1.1-0.9h-1.7v2H42.9z M43,60.7c0.8,0,1.2-0.3,1.2-1.1
		c0-0.7-0.3-1-1.1-1h-1.9v2.1H43z">
  </path>
  <rect x="47.6" y="53.2" class="st0" width="2.1" height="9.3">
  </rect>
  <path class="st0" d="M51.2,62.3v-1.9c0.4,0.1,1.5,0.3,2.8,0.3c1.1,0,1.6-0.1,1.6-0.7c0-0.7-0.5-0.8-2-1.5s-2.5-1.3-2.5-2.8
		c0-1.9,1.2-2.6,3.5-2.6c1.2,0,2.1,0.1,2.6,0.2v1.9c-0.5-0.1-1.5-0.2-2.5-0.2c-1.3,0-1.5,0.1-1.5,0.6s0.7,0.8,1.7,1.2
		c1.5,0.7,2.8,1.3,2.8,3c0,1.8-1.1,2.7-3.6,2.7C53,62.6,52.1,62.4,51.2,62.3">
  </path>
  <polygon class="st0" points="66.2,53.2 66.2,62.4 64.1,62.4 64.1,58.7 60.8,58.7 60.8,62.4 58.7,62.4 58.7,53.2 60.8,53.2 
		60.8,56.8 64.1,56.8 64.1,53.2 	">
  </polygon>
  <rect x="67.9" y="53.2" class="st0" width="2.1" height="9.3">
  </rect>
  <polygon class="st0" points="19.5,65.6 19.5,74.9 17.4,74.9 17.4,68.4 14.6,73 11.8,68.4 11.8,74.9 9.7,74.9 9.7,65.6 12.4,65.6 
		14.6,69.4 16.7,65.6 	">
  </polygon>
  <path class="st0" d="M20.9,70.3c0-3.3,1.3-4.8,4-4.8s4,1.5,4,4.8s-1.3,4.8-4,4.8C22.2,75,20.9,73.6,20.9,70.3 M26.7,70.3
		c0-1.9-0.3-2.8-1.8-2.8s-1.8,1-1.8,2.8c0,1.9,0.3,2.9,1.8,2.9C26.4,73.1,26.7,72.2,26.7,70.3">
  </path>
  <polygon class="st0" points="31.7,67.6 29.2,67.6 29.2,65.6 36.3,65.6 36.3,67.6 33.8,67.6 33.8,74.9 31.7,74.9 	">
  </polygon>
  <path class="st0" d="M36.7,70.3c0-3.3,1.3-4.8,4-4.8c2.7,0,4,1.5,4,4.8s-1.3,4.8-4,4.8C37.9,75,36.7,73.6,36.7,70.3 M42.5,70.3
		c0-1.9-0.3-2.8-1.8-2.8s-1.8,1-1.8,2.8c0,1.9,0.3,2.9,1.8,2.9C42.2,73.1,42.5,72.2,42.5,70.3">
  </path>
  <path class="st0" d="M46.1,65.6h3.8c2,0,3.3,0.7,3.3,3c0,1.4-0.7,2.4-1.9,2.7l2.3,3.6h-2.4l-2-3.3h-0.9v3.3h-2.1v-9.3H46.1z
		 M49.7,69.8c0.9,0,1.2-0.5,1.2-1.2s-0.3-1.2-1.2-1.2h-1.6v2.4C48.1,69.8,49.7,69.8,49.7,69.8z">
  </path>
  <path class="st0" d="M54.3,74.8v-1.9c0.4,0.1,1.5,0.3,2.8,0.3c1.1,0,1.6-0.1,1.6-0.7c0-0.7-0.5-0.8-2-1.5s-2.5-1.3-2.5-2.8
		c0-1.9,1.2-2.6,3.5-2.6c1.2,0,2.1,0.1,2.6,0.2v1.9c-0.5-0.1-1.5-0.2-2.5-0.2c-1.3,0-1.5,0.1-1.5,0.6s0.7,0.8,1.7,1.2
		c1.5,0.7,2.8,1.3,2.8,3c0,1.8-1.1,2.7-3.6,2.7C56.1,75,55.2,74.9,54.3,74.8">
  </path>
  <polygon class="st1" points="25.9,15.4 34.8,30.8 43.7,15.4 34.8,0 	">
  </polygon>
  <polygon class="st1" points="52.6,30.8 34.8,30.8 43.7,46.2 61.5,46.2 	">
  </polygon>
  <polygon class="st1" points="17,30.8 34.8,30.8 25.9,46.2 8.2,46.2 	">
  </polygon>
 </g>
</svg>