<svg version="1.1" id="Layer_1" xmlns:x="ns_extend;" xmlns:i="ns_ai;" xmlns:graph="ns_graphs;" xmlns="http://www.w3.org/2000/svg" xmlns:xlink="http://www.w3.org/1999/xlink" x="0px" y="0px" viewBox="0 0 42.5 56" style="enable-background:new 0 0 42.5 56;" xml:space="preserve">
 <style type="text/css">
  .st0{fill-rule:evenodd;clip-rule:evenodd;fill:#151515;}
 </style>
 <metadata>
  <sfw xmlns="ns_sfw;">
   <slices>
   </slices>
   <sliceSourceBounds bottomLeftOrigin="true" height="56" width="42.5" x="-28.3" y="0">
   </sliceSourceBounds>
  </sfw>
 </metadata>
 <g>
  <path id="a" class="st0" d="M24.4,8.5h-7.9v16c-1,0.5-2,0.9-3.1,1.2c-0.5,0.2-1.2,0.3-1.8,0.4V9.3c0,0,0.1-2.4-1.2-3.3V5.7H23
		C23.6,6.4,24.1,7.3,24.4,8.5z M26.7,30.5c5.8-2.8,8.5-7.6,8.6-13.2c0-3.8-1.3-6.1-2.8-7.3c-0.1-0.1-0.2-0.1-0.3-0.2
		c-0.1-0.4-0.2-0.9-0.4-1.3c-0.3-0.9-0.7-1.7-1.1-2.5C31,6,31.3,6,31.5,6.1c4.2,0.9,7.5,3.3,9.1,8.1c1.3,3.9,0.7,8.7-2.1,12.5
		c-0.7,0.9-2.4,2.9-4.4,4.3c-0.4,0.3-0.6,0.4-1,0.6c2.5,4,3.8,6.3,5.4,10.7c1.4,3.8,2.5,8.9,2.6,10.1c0.3,2.9,1.2,3.1,1.4,3.1V56
		h-10l0-0.3c0.3-0.2,3-1.3,3-5.5c0-3.1-0.7-6.6-2.1-10.4c-0.6-1.7-1.8-4.5-3-6.6l0,0c-0.5,0.2-1.2,0.5-2,0.7
		C27.8,32.7,27.2,31.6,26.7,30.5z M16.5,30.1v2.6c0.8,0,3.1-0.2,5.3-0.6c0.5,1.1,0.9,2.1,1.2,2.9l0,0.1c-0.9,0.1-1.8,0.3-2.9,0.4
		c-1.4,0.2-2.8,0.3-3.6,0.3l0,16.8c0,0.4,0.1,2.4,1.4,3V56h-7.7v-0.3c1.3-0.7,1.4-2.7,1.4-3V31C13.2,30.8,15,30.5,16.5,30.1z
		 M17.5,2.9l-1.1,0h-10v24.7c1,0,4.7-0.4,7.1-1.1c8.1-2.4,11.9-8,12-14.7c0-3.9-1.3-6.2-2.9-7.5c-1-0.8-2.2-1.2-3.1-1.3
		C19.1,2.9,17.9,2.9,17.5,2.9z M1.4,48V3.6c0,0,0.1-2.5-1.2-3.3V0h17.1c1.4,0,3.3,0.1,4.5,0.4c4.3,0.9,7.7,3.4,9.3,8.3
		c1.3,4,0.7,8.9-2.2,12.8c-0.7,0.9-2.5,2.9-4.5,4.4c-0.4,0.3-0.6,0.4-1,0.7c2.6,4.1,3.8,6.5,5.5,11c1.4,3.9,2.5,9.1,2.7,10.3
		c0.4,2.9,1.2,3.2,1.4,3.3v0.3H22.7l0-0.3c0.3-0.2,3.1-1.4,3.1-5.7c0-3.2-0.8-6.7-2.2-10.6c-0.6-1.8-1.9-4.6-3-6.7l0-0.1
		c-1.4,0.6-4.2,1.5-6.1,1.8c-1.3,0.3-2.7,0.5-4.3,0.6c-1.5,0.2-2.9,0.3-3.7,0.3l0,17.2c0,0.4,0.1,2.4,1.4,3.1v0.3H0v-0.3
		C1.3,50.4,1.4,48.3,1.4,48z">
  </path>
 </g>
</svg>