<svg version="1.1" id="Layer_1" xmlns:x="ns_extend;" xmlns:i="ns_ai;" xmlns:graph="ns_graphs;" xmlns="http://www.w3.org/2000/svg" xmlns:xlink="http://www.w3.org/1999/xlink" x="0px" y="0px" viewBox="0 0 345.6 50" style="enable-background:new 0 0 345.6 50;" xml:space="preserve">
 <metadata>
  <sfw xmlns="ns_sfw;">
   <slices>
   </slices>
   <sliceSourceBounds bottomLeftOrigin="true" height="50" width="345.6" x="-603.6" y="140.9">
   </sliceSourceBounds>
  </sfw>
 </metadata>
 <g>
  <g>
   <path d="M274.3,21.1c0.3-0.1,0.7-0.3,1-0.4h0c15.2-5.7,58.4-12.1,37.2,16.5c-0.4,0.5-0.8,1-1.2,1.6C386.3-10.1,322-9,274.3,21.1">
   </path>
   <path d="M193.7,40.7v-5.6c0-6-3.9-9.5-12.5-9.5h-26.5v7.2h21.4c2.1,0,2.9,0.6,2.9,2.3v0.3h-17c-7.2,0-9.5,3-9.5,6.9v0.9
			c0,1.7,0.5,3.2,1.5,4.2c2.1,2,6,2.6,11.4,2.6h14.8C189.8,50,193.7,47.7,193.7,40.7 M176.7,42.9h-8c-1.4,0-2.3-0.4-2.3-1.5
			c0-1.1,0.6-1.8,2.3-1.8h10.2v1.1C178.9,42,178.3,42.9,176.7,42.9">
   </path>
   <path d="M222.4,36v4.2c0,6.2,3.9,9.6,12.5,9.6H262v-7.1h-21.8c-2.3,0-3-0.8-3-2.4v-0.2h17c6,0,9.6-2.1,9.6-6.6v-0.9
			c0-4.1-2.3-7.1-12.6-7.1H236C226.5,25.6,222.4,28.9,222.4,36 M239.4,32.7h8.1c1.4,0,2.3,0.5,2.3,1.5c0,1.1-0.4,1.7-2.3,1.7h-10.4
			v-0.9C237.2,33.6,237.8,32.7,239.4,32.7">
   </path>
   <path d="M220.9,25.9h-19.1c-3,0-5,1.7-5,4.4v19.4h14.8V33.3h9.3V25.9">
   </path>
   <polygon points="138.9,21.5 124,21.5 124,49.5 150.2,49.5 150.2,42.3 138.9,42.3 		">
   </polygon>
   <path d="M120.6,33.3h-19.4c-2.1,0-3.8,1.2-3.8,4.4c0,3.6,2,4.7,3.9,4.7h19.4v7.2H96.9c-10.1,0-14.5-3-14.5-10.8v-1.8
			c0-6.6,4.1-11,14-11h24.1V33.3">
   </path>
   <path d="M49.1,49.5l15.7-14.2v14.2h14.8v-28h-8.6c-3.6,0-6.2,1.5-8.6,3.6C59.6,27.6,49.8,36,49.8,36V21.5h-8.7
			c-5,0-7.4,1.8-10.2,3.9C29,27,0,49.5,0,49.5h17.6l17.3-14.3v14.3H49.1">
   </path>
   <path d="M266.7,49.7V25.9h23.5c11.9,0,16,2.4,16,10.8v13h-14.8V39.2c0-2.9-1.5-5.4-5.9-5.4h-4.1v16H266.7">
   </path>
  </g>
 </g>
</svg>