<svg version="1.1" id="Layer_1" xmlns:x="ns_extend;" xmlns:i="ns_ai;" xmlns:graph="ns_graphs;" xmlns="http://www.w3.org/2000/svg" xmlns:xlink="http://www.w3.org/1999/xlink" x="0px" y="0px" viewBox="0 0 339.1 61" style="enable-background:new 0 0 339.1 61;" xml:space="preserve">
 <metadata>
  <sfw xmlns="ns_sfw;">
   <slices>
   </slices>
   <sliceSourceBounds bottomLeftOrigin="true" height="61" width="339.1" x="-93.9" y="-208.1">
   </sliceSourceBounds>
  </sfw>
 </metadata>
 <g>
  <g>
   <path d="M61.5,2.8l-1.9,2.8c12.5,5.1,17.5,14.5,17.5,24.4c0,5-1.3,9.5-4,9.5H40.5c-4.5,0-5.8-1.6-3.8-5.6
			C40.3,27,51,13.5,57.6,5.3c1-1.2,1.8-3.1-1.7-4C52.4,0.4,46.6,0,41.8,0C17.2,0,0,13.3,0,30.5C0,46.3,14.9,61,41.7,61
			c11.9,0,26.4-3.3,34.6-12.7h-7.1c-8,7.3-18.5,8.9-27.5,8.9C20.1,57.2,6.4,46,6.4,30.5c0-14.3,15.5-27.2,35.1-27.2
			c2.3,0,3.1,0.5,0.6,3.6c-5,6.2-13.9,18.5-18.1,25.7c-4.5,7.7,0.1,14,10.2,14h40.9c2.5,0,4-1.4,5.4-4.1c1.2-2.1,3-6.3,3-12.1
			C83.6,18.8,74.9,8.1,61.5,2.8">
   </path>
   <path d="M328.7,28.2h-27.8c0.9-3.5,3.7-6,8.8-6h26.6v-6h-28.2c-16.1,0-19.9,11.4-19.9,17.9h34.4c4.7,0,4.7,6.4,0.2,6.4
			c-4.7,0-38,0-38,0V16.3h-11.4v24.3h-19c-5.1,0-7.2-2.4-7.2-6.2c0-4.5,0-18.1,0-18.1h-18.3l-16.4,10.3l-14.1-10.3h-40.7
			c-11.8,0-20.1,6.9-21.1,15.5h7.6c-3.1,2-5.4,5.3-6.8,8.9h-24.1c-4.5,0-6.7-2.4-6.7-6.8V16.3H95.1v14.9c0,9.5,5.2,15.4,16.8,15.4
			h80.2l16.5-10.4l14.2,10.4h16.9l-22-16.1l17.9-11.3v17.1c0,5.3,6.9,10.3,13.1,10.3h80.1C342.7,46.6,342.6,28.2,328.7,28.2
			 M190,40.6h-38.9c0.4-3.3,2.1-6.5,7.4-6.5h24.1v-5.9h-32.1c0.6-2.5,3.1-5.9,8.8-5.9h25.5V19l18.3,13.4L190,40.6z">
   </path>
  </g>
 </g>
</svg>