<svg version="1.1" id="Layer_1" xmlns:x="ns_extend;" xmlns:i="ns_ai;" xmlns:graph="ns_graphs;" xmlns="http://www.w3.org/2000/svg" xmlns:xlink="http://www.w3.org/1999/xlink" x="0px" y="0px" viewBox="0 0 372.6 65" style="enable-background:new 0 0 372.6 65;" xml:space="preserve">
 <style type="text/css">
  .st0{fill:#ED1C24;}
 </style>
 <metadata>
  <sfw xmlns="ns_sfw;">
   <slices>
   </slices>
   <sliceSourceBounds bottomLeftOrigin="true" height="65" width="372.6" x="-123.1" y="22">
   </sliceSourceBounds>
  </sfw>
 </metadata>
 <g>
  <g id="svg_1" transform="translate(0 1252) scale(0.1 -0.1)">
   <path id="svg_2" class="st0" d="M3544,12519.3c-9-1.1-17.9-5.4-21-10.1c-1.2-1.9-2.7-5.9-3.3-8.9c-0.6-3.4-1.2-70.8-1.7-185.8
			c-0.3-99.2-1-188.5-1.7-198.4c-2.6-49.4-14.6-70.9-45.6-82c-20.1-7.2-37.7-9.4-86.2-11c-41.2-1.5-97.3-0.1-111.1,2.7
			c-38.5,7.8-56.3,26.5-64,67.2c-2.2,11.5-3.3,106.3-3.4,279.5c-0.1,135.9,0.1,130.4-6.4,138c-1.8,2-5.7,4.6-9,5.9l-5.9,2.4
			l-77.4,0.3c-84.1,0.3-91.1,0-100.7-4.8c-5-2.4-6.1-3.6-8.8-9.1l-3.1-6.3l-0.5-75.1c-0.6-94.6,0.6-304.1,2-335.2
			c2.8-60.8,13.9-103.1,35.7-135.7c13.2-19.8,27.3-33.5,46.4-44.8c27.2-16.3,58-24.7,103.8-28.4c109-9,302.9-7,377.2,3.6
			c49.6,7.1,89.3,27,114.3,57.1c29.4,35.3,43.7,81.8,49.4,159.6c2.5,34.2,4,288,2.2,369.6c-0.6,29.9-0.7,31.5-3.1,36.3
			c-2.8,5.8-7.4,9.6-14.3,12c-4.4,1.5-14,1.7-80.8,1.9C3585.4,12520.1,3548,12519.8,3544,12519.3L3544,12519.3L3544,12519.3
			L3544,12519.3z">
   </path>
   <path id="svg_3" class="st0" d="M1794,12518.3c-25.6-1.2-31.7-4.4-36.8-18.1c-0.7-2.3-1.2-59.8-1.7-199.2
			c-0.6-217-0.2-203.7-7.4-225.2c-6.9-20.5-17.8-33.4-36.2-42.7c-20.2-10.2-45.8-13.3-109.5-13.4c-65.4-0.1-101.6,4.4-124.1,15.2
			c-16.9,8.2-29,24.1-34.3,45.1c-5.9,23.6-5.7,14.4-5.8,223.1c0,213.4,0.4,199.5-6.9,206.6c-5.8,5.6-10,6.8-28.9,7.7
			c-22.9,1.1-123.9,1-140.3,0c-15.1-1-20.5-2.9-25.5-8.8c-7.3-8.3-6.7,4-7.3-185.8c-0.5-179.9,0.4-252.7,3.3-275.2
			c5.2-39.7,15.9-71.5,32.9-97.5c8.8-13.6,27.1-31.9,40.9-41c29.8-19.8,63.2-29,121.9-33.6c42.4-3.3,67.2-4,153.1-4
			c126.3,0,182.2,2.3,222.2,9.2c76.6,13.2,124.3,50.1,144.8,112c8.3,24.8,11.9,48.1,13.5,86.6c3,75.3,4,413,1.2,421.3
			c-3.3,9.7-9.4,14.6-21,16.6C1934,12518.6,1816.8,12519.6,1794,12518.3L1794,12518.3L1794,12518.3L1794,12518.3L1794,12518.3z">
   </path>
   <path id="svg_4" class="st0" d="M2164.6,12518.3c-44.6-0.6-45.8-0.7-52.8-6c-8.5-6.4-10-17.8-9.1-75.3c0.6-47.1,1-50,7.6-57.3
			c2.4-2.6,5.6-4.7,9-5.9c6.2-2.2,9.2-2.2,319.5-0.2c168.7,1,176.3,0.9,181.7-0.8c6.4-2.2,9.2-5.4,10.1-11.8
			c0.8-5.9-1.7-10.5-7.9-14.5c-6.5-4.2-74.3-35-202-92.1c-231.9-103.6-246.6-110.6-277.3-133.3c-52.5-38.8-72.4-87.4-59.7-145.7
			c10.2-46.5,43.6-77.1,99.7-91.2c24.7-6.3,44-8.7,83.7-10.1c36-1.4,327.7-0.6,430.9,1.1c97.7,1.7,123.6,2.5,129.3,4.6
			c7.9,2.8,12.3,8.1,14.5,17.4c3.3,13.8,3.1,97.9-0.3,108.5c-3.3,10.4-9.4,14.9-22.7,16.4c-4.2,0.4-29.3,0.4-55.9,0
			c-149.7-2.7-253.3-4.2-332.8-4.7c-85.2-0.5-89.5-0.5-92.8,1.4c-2,1-4.6,3.1-5.6,4.7c-1.9,2.5-2,3.3-0.9,7
			c2.9,9.5,11.3,14,95.2,50.7c131.4,57.5,192.3,85.4,257.5,117.9c55.4,27.6,94.9,49.6,112.1,62.4c34.2,25.6,55.8,57.4,63.6,93.7
			c2.5,11.9,2.4,38.5-0.2,50.7c-7.5,34.7-25.1,63.1-49.7,80.1c-25.4,17.6-58.2,26.7-114.4,31.6
			C2679.7,12518.7,2240.4,12519.5,2164.6,12518.3L2164.6,12518.3L2164.6,12518.3L2164.6,12518.3L2164.6,12518.3z">
   </path>
   <path id="svg_5" class="st0" d="M46.1,12517.3c-31.5-0.9-37.5-2.9-43.4-14l-2.3-4.3l-0.3-304.4c-0.2-234.4,0-305.4,0.9-309
			c1.7-5.9,6.9-11,13.6-13.3c5-1.6,12.9-1.8,86-2.2c84.3-0.3,89.5-0.1,98.5,4.2c6,2.9,10,9.3,11.4,18.3c0.8,5,1.1,91.5,0.9,307.2
			c-0.3,290.9-0.4,300.3-2.3,303.9c-3,5.7-5.7,8.1-11.9,10.5c-5.3,2.1-8.6,2.4-38.5,3.1C120.8,12518.3,80,12518.2,46.1,12517.3
			L46.1,12517.3L46.1,12517.3L46.1,12517.3z">
   </path>
   <path id="svg_6" class="st0" d="M629,12516.1c-80.2-0.8-119.7-2.2-138.7-4.6c-76.5-9.8-124.3-42-143.7-97
			c-20.5-58.3-10.2-120.3,27-162.6c24.9-28.5,54-44.5,136.1-75.4c45.2-17,68.4-25.2,196.1-69.3c121.2-41.9,158-55.3,166.6-60.2
			c7-4.1,12.7-10.3,13.5-15c1-5.1-2.1-11-6.7-13.3c-9.6-4.7-12.9-4.7-261.6-1.3c-63.1,0.8-143.9,1.7-179.6,1.8l-64.9,0.2l-6.2-3.1
			c-6.7-3.3-10.1-7.3-12.3-14.5c-0.9-3.1-1.2-17.5-1.2-55.4c0-57.2,0.2-59.3,7-65.9c7-6.8,6.9-6.8,69.9-7.8
			c31.5-0.4,150.3-0.9,264.2-1.1c218.3-0.2,225.8-0.1,262.4,4.6c40.8,5.1,70.3,14.8,94.5,30.9c10.4,6.9,27.5,23.5,35.4,34.2
			c12.1,16.7,21.3,39.1,25.2,62.1c1.9,11,2.2,15.6,1.7,31.7c-0.6,20.5-1.9,28-7.6,45.3c-8,24.2-23.6,47.3-43.4,64.7
			c-10.1,8.9-27,20.4-38.1,26c-34.3,17.4-106.4,44.1-307.2,113.8c-96.4,33.4-122.6,43-133.8,48.6c-12.1,6-15.8,10.1-16.4,18.1
			c-0.6,7.5,2,12,8.6,15.4l5,2.6h80.6c44.2,0,155-0.2,246.1-0.5c156-0.4,165.9-0.3,170.3,1.4c8.8,3.4,13.6,10.1,15.6,21.7
			c1.7,9.4,0.8,102.2-0.8,107.4c-3.2,9.9-9.8,14.8-21.6,16.6C1062.4,12517.4,744,12517.4,629,12516.1L629,12516.1L629,12516.1
			L629,12516.1L629,12516.1z">
   </path>
  </g>
 </g>
</svg>