<svg version="1.1" id="Layer_1" xmlns:x="ns_extend;" xmlns:i="ns_ai;" xmlns:graph="ns_graphs;" xmlns="http://www.w3.org/2000/svg" xmlns:xlink="http://www.w3.org/1999/xlink" x="0px" y="0px" viewBox="0 0 114.1 50" style="enable-background:new 0 0 114.1 50;" xml:space="preserve">
 <style type="text/css">
  .st0{fill-rule:evenodd;clip-rule:evenodd;fill:#FFFFFF;filter:url(#Adobe_OpacityMaskFilter);}
	.st1{mask:url(#mask0_2327_2151_1_);}
	.st2{fill-rule:evenodd;clip-rule:evenodd;}
 </style>
 <metadata>
  <sfw xmlns="ns_sfw;">
   <slices>
   </slices>
   <sliceSourceBounds bottomLeftOrigin="true" height="50" width="114.1" x="0" y="0">
   </sliceSourceBounds>
  </sfw>
 </metadata>
 <defs>
  <filter id="Adobe_OpacityMaskFilter" filterUnits="userSpaceOnUse" x="0" y="0" width="114.1" height="50">
   <feColorMatrix type="matrix" values="1 0 0 0 0  0 1 0 0 0  0 0 1 0 0  0 0 0 1 0">
   </feColorMatrix>
  </filter>
 </defs>
 <mask maskUnits="userSpaceOnUse" x="0" y="0" width="114.1" height="50" id="mask0_2327_2151_1_">
  <path class="st0" d="M0,50h114.1V0H0V50z">
  </path>
 </mask>
 <g class="st1">
  <path class="st2" d="M57,46.4c-11.8,0-21.5-9.6-21.5-21.4c0-11.8,9.6-21.4,21.5-21.4c11.8,0,21.5,9.6,21.5,21.4
		C78.5,36.8,68.9,46.4,57,46.4z M90.8,34.8H80.1c0.6-1.3,1-2.7,1.4-4.2H95l3.6-3.6H82c0.1-0.7,0.1-1.4,0.1-2.1c0-0.7,0-1.4-0.1-2.1
		h20.8l3.6-3.6H81.5c-0.3-1.4-0.8-2.8-1.4-4.2h30.4l3.6-3.6H78.2C73.7,4.6,65.9,0,57.1,0c-8.9,0-16.7,4.6-21.1,11.6H0l3.6,3.6H34
		c-0.6,1.3-1,2.7-1.4,4.2H7.8l3.6,3.6h20.8C32,23.6,32,24.3,32,25c0,0.7,0,1.4,0.1,2.1H15.5l3.6,3.6h13.6c0.3,1.4,0.8,2.8,1.4,4.2
		H23.3l3.6,3.6h9.1c4.5,7,12.3,11.6,21.1,11.6c8.9,0,16.7-4.6,21.1-11.6h9.1L90.8,34.8z M71.8,30.7h2.3V19.3h-2.3V30.7z M62,30.7
		h-2.3V19.3h2.8l4.5,8.2v-8.2h2.2v11.3h-2.8L62,22.5V30.7z M54.8,30.7h2.3V19.3h-2.3V30.7z M42.1,30.7h-2.2V19.3h3.3l2.9,9l2.9-9
		h3.3v11.3H50v-8.4l-2.7,8.4h-2.5l-2.7-8.4V30.7z">
  </path>
 </g>
</svg>